<?xml version="1.0" encoding="UTF-8"?>
<svg id="Ebene_1" xmlns="http://www.w3.org/2000/svg" version="1.1" xmlns:xlink="http://www.w3.org/1999/xlink" viewBox="0 0 424 554">
  <!-- Generator: Adobe Illustrator 29.5.1, SVG Export Plug-In . SVG Version: 2.1.0 Build 141)  -->
  <defs>
    <style>
      .st0 {
        fill: #fff;
        fill-opacity: .7;
        stroke: #596c63;
        stroke-miterlimit: 10;
        stroke-width: 10px;
      }

      .st1 {
        display: none;
      }

      .st1, .st2, .st3 {
        isolation: isolate;
      }

      .st4 {
        fill: none;
      }

      .st2 {
        fill: #395045;
        font-family: Helvetica-Normal, Helvetica-Normal;
        font-size: 72px;
      }

      .st5 {
        fill: #96a29d;
      }

      .st6 {
        fill: #395045;
      }

      .st7 {
        fill: #c2c9c5;
      }

      .st8 {
        fill: #ebecec;
      }

      .st9 {
        fill: #d7dcda;
      }

      .st10 {
        fill: #7e8d86;
      }

      .st11 {
        clip-path: url(#clippath);
      }

      .st12 {
        fill: #a8b2ad;
      }
    </style>
    <clipPath id="clippath">
      <rect class="st4" x="102.1" y="124.5" width="271.3" height="327.3" rx="15.3" ry="15.3"/>
    </clipPath>
  </defs>
  <image class="st1" width="3000" height="2000" transform="translate(-174.8 -46.4) scale(.2)" xlink:href="../../Links/Microsoft_Excel-Logo.wine.png"/>
  <g>
    <g class="st11">
      <g>
        <rect class="st9" x="97.8" y="117.1" width="285.3" height="89"/>
        <rect class="st7" x="97.8" y="206.1" width="285.3" height="83.7"/>
        <rect class="st12" x="97.8" y="288.3" width="285.3" height="82"/>
        <rect class="st5" x="97.8" y="370.5" width="285.3" height="88.9"/>
      </g>
    </g>
    <rect class="st6" x="23.5" y="194.8" width="186.7" height="186.7" rx="16" ry="16"/>
    <rect class="st10" x="18.8" y="198.1" width="186.7" height="186.7" rx="16" ry="16"/>
    <path class="st8" d="M177.3,225.1v-3h-33.3v12.9c0,18.3-13.7,34.1-31.9,34.3-18.2-.2-31.9-16.1-31.9-34.3v-13h-33.3v3c0,33.8,8.4,56.6,41.6,63.5-39.8,7.2-41.4,33.9-41.4,63.5v2h32.9v-13c0-18.3,13.7-34.2,32-34.5,18.3.3,32,16.1,32,34.5v13h32.9v-2c0-29.6-1.6-56.3-41.4-63.5,33.2-6.8,41.6-29.6,41.6-63.5h.2Z"/>
    <polygon class="st0" points="318.1 424.1 282.9 361.8 246.5 300.1 210.1 361.8 174.9 424.1 216.5 424.5 216.5 536.4 276.5 536.4 276.5 424.5 318.1 424.1"/>
  </g>
  <g class="st3">
    <text class="st2" transform="translate(48.2 71.4)"><tspan x="0" y="0">Drag&amp;Drop</tspan></text>
  </g>
</svg>