<?xml version="1.0" encoding="UTF-8"?>
<svg id="Ebene_1" xmlns="http://www.w3.org/2000/svg" version="1.1" xmlns:xlink="http://www.w3.org/1999/xlink" viewBox="0 0 424 554">
  <!-- Generator: Adobe Illustrator 29.5.1, SVG Export Plug-In . SVG Version: 2.1.0 Build 141)  -->
  <defs>
    <style>
      .st0 {
        fill: #ebecec;
      }

      .st1 {
        fill: none;
      }

      .st2 {
        fill: #fff;
        fill-opacity: .7;
        stroke: gray;
        stroke-miterlimit: 10;
        stroke-width: 10px;
      }

      .st3 {
        fill: #666;
      }

      .st4 {
        fill: #999;
      }

      .st5 {
        display: none;
      }

      .st6 {
        fill: #ccc;
      }

      .st7 {
        fill: #b3b3b3;
      }

      .st8 {
        font-family: Helvetica-Normal, Helvetica-Normal;
        font-size: 72px;
      }

      .st8, .st9 {
        fill: #e6e6e6;
      }

      .st10 {
        fill: gray;
      }

      .st11 {
        clip-path: url(#clippath);
      }
    </style>
    <clipPath id="clippath">
      <rect class="st1" x="102.1" y="124.5" width="271.3" height="327.3" rx="15.3" ry="15.3"/>
    </clipPath>
  </defs>
  <image class="st5" width="3000" height="2000" transform="translate(-174.8 -46.4) scale(.2)" xlink:href="../../Links/Microsoft_Excel-Logo.wine.png"/>
  <g>
    <g class="st11">
      <g>
        <rect class="st9" x="97.8" y="117.1" width="285.3" height="89"/>
        <rect class="st6" x="97.8" y="206.1" width="285.3" height="83.7"/>
        <rect class="st7" x="97.8" y="288.3" width="285.3" height="82"/>
        <rect class="st4" x="97.8" y="370.5" width="285.3" height="88.9"/>
      </g>
    </g>
    <rect class="st3" x="23.5" y="194.8" width="186.7" height="186.7" rx="16" ry="16"/>
    <rect class="st10" x="18.8" y="198.1" width="186.7" height="186.7" rx="16" ry="16"/>
    <path class="st0" d="M177.3,225.1v-3h-33.3s0,12.9,0,12.9c0,18.3-13.7,34.1-31.9,34.3-18.2-.2-31.9-16.1-31.9-34.3v-13s-33.3,0-33.3,0v3c0,33.8,8.4,56.6,41.6,63.5-39.8,7.2-41.4,33.9-41.4,63.5v2h32.9v-13c0-18.3,13.7-34.2,32-34.5,18.3.3,32,16.1,32,34.5v13c0,0,32.9,0,32.9,0v-2c0-29.6-1.6-56.3-41.4-63.5,33.2-6.8,41.6-29.6,41.6-63.5Z"/>
    <polygon class="st2" points="318.1 424.1 282.9 361.8 246.5 300.1 210.1 361.8 174.9 424.1 216.5 424.5 216.5 536.4 276.5 536.4 276.5 424.5 318.1 424.1"/>
  </g>
  <text class="st8" transform="translate(48.2 71.4)"><tspan x="0" y="0">Drag&amp;Drop</tspan></text>
</svg>